<svg xmlns="http://www.w3.org/2000/svg" width="30" height="30">
  <path d="M7.5 5.625h.078c.777 0 1.406-.629 1.406-1.406V1.406C8.984.63 8.355 0 7.578 0H7.5c-.777 0-1.406.629-1.406 1.406V4.22c0 .777.629 1.406 1.406 1.406M22.031 5.625h.078c.778 0 1.407-.629 1.407-1.406V1.406C23.516.63 22.886 0 22.109 0h-.078c-.777 0-1.406.629-1.406 1.406V4.22c0 .777.629 1.406 1.406 1.406m0 0" style="stroke:none;fill-rule:nonzero;fill:#000;fill-opacity:1"/>
  <path d="M26.25 3.75h-1.328v.469a2.816 2.816 0 0 1-2.813 2.812h-.078A2.816 2.816 0 0 1 19.22 4.22V3.75H10.39v.469A2.816 2.816 0 0 1 7.578 7.03H7.5A2.816 2.816 0 0 1 4.688 4.22V3.75H3.75C1.68 3.75 0 5.43 0 7.5v18.75C0 28.32 1.68 30 3.75 30h22.5c2.07 0 3.75-1.68 3.75-3.75V7.5c0-2.07-1.68-3.75-3.75-3.75m1.875 22.5c0 1.035-.84 1.875-1.875 1.875H3.75a1.875 1.875 0 0 1-1.875-1.875v-15h26.25Zm0 0" style="stroke:none;fill-rule:nonzero;fill:#000;fill-opacity:1"/>
  <path d="M9.805 15.938a2.304 2.304 0 1 1-4.61 0 2.304 2.304 0 1 1 4.61 0M17.305 15.938a2.304 2.304 0 1 1-4.61 0 2.304 2.304 0 1 1 4.61 0M24.805 15.938a2.304 2.304 0 1 1-4.61 0 2.304 2.304 0 1 1 4.61 0M9.805 23.438a2.304 2.304 0 1 1-4.61 0 2.304 2.304 0 1 1 4.61 0M17.305 23.438a2.304 2.304 0 1 1-4.61 0 2.304 2.304 0 1 1 4.61 0M24.805 23.438a2.304 2.304 0 1 1-4.61 0 2.304 2.304 0 1 1 4.61 0m0 0" style="stroke:none;fill-rule:nonzero;fill:#000;fill-opacity:1"/>
</svg>